<?xml version="1.0" standalone="no"?>
<!DOCTYPE svg PUBLIC "-//W3C//DTD SVG 20010904//EN"
 "http://www.w3.org/TR/2001/REC-SVG-20010904/DTD/svg10.dtd">
<svg version="1.0" xmlns="http://www.w3.org/2000/svg"
 width="70.000000pt" height="70.000000pt" viewBox="0 0 70.000000 70.000000"
 preserveAspectRatio="xMidYMid meet">
<metadata>
Created by potrace 1.11, written by Peter Selinger 2001-2013
</metadata>
<g transform="translate(0.000000,70.000000) scale(0.100000,-0.100000)"
fill="#000000" stroke="none">
<path d="M10 395 l0 -225 40 0 40 0 0 80 0 80 56 0 c31 0 71 7 89 16 92 44 88
230 -7 263 -17 6 -73 11 -124 11 l-94 0 0 -225z m192 128 c22 -20 23 -70 1
-95 -11 -13 -30 -18 -65 -18 l-48 0 0 65 0 65 47 0 c29 0 53 -6 65 -17z"/>
<path d="M435 488 c-22 -73 -40 -135 -40 -138 -1 -3 -7 -23 -14 -45 -7 -22
-19 -62 -26 -88 l-13 -48 40 3 c36 3 41 6 53 40 7 21 10 40 7 43 -4 3 29 5 73
3 l79 -3 12 -40 c10 -38 13 -40 53 -43 37 -3 42 -1 37 15 -3 10 -26 88 -52
173 -25 85 -53 179 -61 208 l-16 52 -46 0 -47 0 -39 -132z m110 -57 c6 -25 15
-56 19 -68 7 -22 5 -23 -43 -23 -42 0 -49 3 -46 18 42 169 44 171 70 73z"/>
</g>
</svg>
